<svg xmlns="http://www.w3.org/2000/svg" viewBox="0 0 1025 1438"><filter id="b"><feGaussianBlur stdDeviation="12" /></filter><path fill="#a57a66" d="M0 0h1022v1438H0z"/><g filter="url(#b)" transform="translate(2.8 2.8) scale(5.61719)"><ellipse fill="#cd9b82" fill-opacity=".5" cx="26" cy="143" rx="162" ry="72"/><ellipse fill="#674540" fill-opacity=".5" cx="68" cy="247" rx="181" ry="29"/><ellipse fill="#76473a" fill-opacity=".5" rx="1" ry="1" transform="matrix(-122.8797 3.94462 -.78368 -24.41246 80 15.3)"/><path fill="#2a4554" fill-opacity=".5" d="M132 43h50v32h-50z"/><ellipse fill="#183744" fill-opacity=".5" cx="63" cy="130" rx="45" ry="5"/><path fill="#f3b684" fill-opacity=".5" d="M16 41h52v54H16z"/><path fill="#ebbc9a" fill-opacity=".5" d="M9 147h107v28H9z"/><path fill="#f1faff" fill-opacity=".5" d="M172 36l-40-5 15 12z"/><path fill="#56170d" fill-opacity=".5" d="M92 107h30v10H92z"/><ellipse fill="#fff" fill-opacity=".5" cx="160" cy="64" rx="25" ry="2"/><path fill="#8b5f4f" fill-opacity=".5" d="M54 67h51v33H54z"/><ellipse fill="#916658" fill-opacity=".5" rx="1" ry="1" transform="rotate(-69.5 228.2 -9.6) scale(38.95311 42.24621)"/><ellipse fill="#eefcff" fill-opacity=".5" rx="1" ry="1" transform="rotate(77.4 13.8 154.8) scale(12.76867 4.65166)"/><path fill="#ffece8" fill-opacity=".5" d="M19 106h28v8H19z"/><path fill="#ffdf98" fill-opacity=".5" d="M90 57h36v7H90z"/><path fill="#8a5d4d" fill-opacity=".5" d="M20 132l-36-50 26-98z"/><path fill="#5e2c23" fill-opacity=".5" d="M88 67h94v9H88z"/><ellipse fill="#989a9f" fill-opacity=".5" cx="171" cy="46" rx="13" ry="13"/><path fill="#292527" fill-opacity=".5" d="M12 96h57v3H12z"/><path fill="#ffc68d" fill-opacity=".5" d="M100.2 84.3l25.6 24.7-32.7-5.2L125 78.4z"/><path fill="#ffd9a8" fill-opacity=".5" d="M104 38h7v26h-7z"/><path fill="#2c3337" fill-opacity=".5" d="M132 42h27v18h-27z"/><ellipse fill="#dba27a" fill-opacity=".5" rx="1" ry="1" transform="rotate(42.4 -226.2 134.3) scale(18.77772 29.43028)"/><path fill="#946352" fill-opacity=".5" d="M93.7 42.1l-1.4-9.9 102-14.3 1.4 9.9z"/><path fill="#e7ad85" fill-opacity=".5" d="M70.1 38.9l4.2 10-3.2 13.8-64-16.1z"/><ellipse fill="#cfcfd9" fill-opacity=".5" rx="1" ry="1" transform="matrix(.05368 2.05009 -47.83456 1.2526 52 159.8)"/><path fill="#27292a" fill-opacity=".5" d="M147 176l9-4 18 8z"/><path fill="#9c6556" fill-opacity=".5" d="M129 38l-18 54 28-15z"/><path fill="#dde6ec" fill-opacity=".5" d="M151.3 141.4l6.8-20.5 4.6-4.4-10.5 34.7z"/><ellipse fill="#6e4f45" fill-opacity=".5" cx="35" cy="255" rx="152" ry="12"/><path fill="#c79384" fill-opacity=".5" d="M150 178h15v25h-15z"/><path fill="#a06c4b" fill-opacity=".5" d="M7 64h50v7H7z"/><ellipse fill="#d19879" fill-opacity=".5" cx="65" cy="146" rx="50" ry="13"/><ellipse fill="#90675e" fill-opacity=".5" cx="2" cy="194" rx="6" ry="47"/><path fill="#f0e5d7" fill-opacity=".5" d="M41 127h44v1H41z"/><path fill="#8d7370" fill-opacity=".5" d="M175.3 165l-14.7-42.5 16.1-5.5 14.7 42.5z"/><path fill="#e7f1f4" fill-opacity=".5" d="M20 111h24v5H20z"/><path fill="#2c3236" fill-opacity=".5" d="M159 59h23v5h-23z"/><ellipse fill="#a67865" fill-opacity=".5" rx="1" ry="1" transform="matrix(-.41075 -29.41566 22.6297 -.316 115.4 209.6)"/><path fill="#272329" fill-opacity=".5" d="M17 116h25v2H17z"/><path fill="#e0d5d7" fill-opacity=".5" d="M46 158h73v3H46z"/><path fill="#d6d1cd" fill-opacity=".5" d="M162.8 96.9l8.5 43.4-19.2-51.1 12.2 29.1z"/><path fill="#976453" fill-opacity=".5" d="M74-12l-3 70 35-3z"/><path fill="#c78e67" fill-opacity=".5" d="M42 163h52v54H42z"/><path fill="#614939" fill-opacity=".5" d="M157 214l-17-7-9-27z"/><path fill="#e4af8a" fill-opacity=".5" d="M48.9 42.6l-40.2 55 50.5-3-46.5-39.7z"/><ellipse fill="#001218" fill-opacity=".5" cx="62" cy="129" rx="36" ry="1"/><path fill="#b48071" fill-opacity=".5" d="M128.9 67.9l40 41.7-1-18.6-48.9 37.6z"/><path fill="#f1ebe7" fill-opacity=".5" d="M138.6 37.9l44.7-4.7.1 1-44.7 4.6z"/><ellipse fill="#9b6c50" fill-opacity=".5" cx="42" cy="182" rx="65" ry="2"/><ellipse fill="#9b6d5f" fill-opacity=".5" cx="100" cy="226" rx="89" ry="6"/><path fill="#ad7c6e" fill-opacity=".5" d="M-16 140l45 3-18-55z"/><ellipse fill="#322e2c" fill-opacity=".5" cx="70" cy="90" rx="9" ry="2"/><path fill="#656569" fill-opacity=".5" d="M197 31l-27.3 19 16.6 19-24.5-29.8z"/><path fill="#946756" fill-opacity=".5" d="M8 26h131v14H8z"/><path fill="#fff7e9" fill-opacity=".5" d="M165 65h17v2h-17z"/><path fill="#242426" fill-opacity=".5" d="M25 132h76v2H25z"/><path fill="#ffbc85" fill-opacity=".5" d="M109 108l15-7-45-6z"/><path fill="#7f5945" fill-opacity=".5" d="M-7.5 84.6l-8.5-10 39.4-5 2.7 2z"/><ellipse fill="#ffe2b5" fill-opacity=".5" cx="108" cy="44" rx="6" ry="4"/><path fill="#4a4547" fill-opacity=".5" d="M149 133h3v17h-3z"/><path fill="#b28175" fill-opacity=".5" d="M133.7 190.2l-43-79.3-10.5 18.7 51.2-6z"/><path fill="#f9f2ed" fill-opacity=".5" d="M139 35h20v7h-20z"/><ellipse fill="#ffd8a9" fill-opacity=".5" cx="106" cy="84" rx="5" ry="5"/><ellipse fill="#efbb90" fill-opacity=".5" cx="67" cy="85" rx="9" ry="3"/><path fill="#233336" fill-opacity=".5" d="M145 67h37v5h-37z"/><path fill="#453a36" fill-opacity=".5" d="M127 36l11 36 2-29z"/><path fill="#b67c6b" fill-opacity=".5" d="M0 98h95v9H0z"/><path fill="#e5dedc" fill-opacity=".5" d="M169 107.1l-9.3 2.5-6 34.2.3-6.7z"/><path fill="#966453" fill-opacity=".5" d="M113 30h18v28h-18z"/><path fill="#c6c2ce" fill-opacity=".5" d="M8 162h2v56H8z"/><ellipse fill="#7a322a" fill-opacity=".5" cx="108" cy="72" rx="16" ry="5"/><path fill="#8c5a3a" fill-opacity=".5" d="M37.7 151l13.5 23.4-.9.5-13.5-23.3z"/><path fill="#d4a78c" fill-opacity=".5" d="M111 144h5v72h-5z"/><path fill="#79797d" fill-opacity=".5" d="M161 90h8v13h-8z"/><path fill="#fee7df" fill-opacity=".5" d="M153 62l-12 2 3-3z"/><path fill="#daa382" fill-opacity=".5" d="M17 183h39v15H17z"/><path fill="#b58374" fill-opacity=".5" d="M128.5 99.6L82.5 89l-39.8 33.3 4-22.5z"/><ellipse fill="#9d6b4d" fill-opacity=".5" cx="63" cy="195" rx="3" ry="25"/><path fill="#b8806d" fill-opacity=".5" d="M124 74h33v51h-33z"/><path fill="#c1aeac" fill-opacity=".5" d="M171.4 57l-9.2-4.5-2.6-.8 11-2.8z"/><path fill="#555554" fill-opacity=".5" d="M19 124.5l30 1v4l-30-1z"/><ellipse fill="#e3dbdb" fill-opacity=".5" cx="27" cy="160" rx="14" ry="3"/><path fill="#b37d6f" fill-opacity=".5" d="M31 134h42v9H31z"/><path fill="#7a553e" fill-opacity=".5" d="M173 190l1-21-19-3z"/><path fill="#47464d" fill-opacity=".5" d="M166 47.3l31 13.9V83l-29-42.5z"/><path fill="#dca584" fill-opacity=".5" d="M88 215l-19-30h20z"/><ellipse fill="#aa9d96" fill-opacity=".5" cx="177" cy="47" rx="4" ry="9"/><ellipse fill="#7e787e" fill-opacity=".5" cx="51" cy="157" rx="45" ry="1"/><ellipse fill="#b0a29a" fill-opacity=".5" cx="170" cy="43" rx="30" ry="1"/><path fill="#996a5a" fill-opacity=".5" d="M73 19h19v64H73z"/><path fill="#ffc68c" fill-opacity=".5" d="M94 58h29v6H94z"/><path fill="#5d493c" fill-opacity=".5" d="M150 209h19v5h-19z"/><ellipse fill="#aa5a40" fill-opacity=".5" cx="113" cy="109" rx="14" ry="3"/><path fill="#e2e5e4" fill-opacity=".5" d="M162.5 114.6l10 28 1 2-2.3-14.5z"/><path fill="#ebe6e3" fill-opacity=".5" d="M165 95h2v22h-2z"/><path fill="#70503c" fill-opacity=".5" d="M137 196.9l-5.4-11 6.3-7.3 2.6.1z"/><path fill="#df491d" fill-opacity=".5" d="M99 66h22v2H99z"/><ellipse fill="#e5cbc6" fill-opacity=".5" cx="153" cy="58" rx="2" ry="2"/><path fill="#ffca97" fill-opacity=".5" d="M112.1 107.3l-4.3-27.1-3 26.2 17.5-6.6z"/><path fill="#b8846e" fill-opacity=".5" d="M150.6 208.8l-13.4-13.4 14.2-14.2 13.4 13.4z"/><path fill="#dca57e" fill-opacity=".5" d="M13 144h112v12H13z"/><path fill="#d49c77" fill-opacity=".5" d="M71.2 64.3l-43.5 6.5 31 24.2-8.3-52z"/><ellipse fill="#805748" fill-opacity=".5" cx="71" rx="181" ry="9"/><path fill="#a77658" fill-opacity=".5" d="M62 183.8l-21.5 29.6L30 198l17.6 15z"/><path fill="#d89e7b" fill-opacity=".5" d="M54 162h59v16H54z"/><ellipse fill="#916352" fill-opacity=".5" cx="181" cy="25" rx="105" ry="9"/><path fill="#5b544d" fill-opacity=".5" d="M104 203l-2 5-8-3z"/><path fill="#e7b18b" fill-opacity=".5" d="M58 42h14v19H58z"/><path fill="#af806d" fill-opacity=".5" d="M2.2 87.8L23 145l7.4-29.1-42.6 68z"/><path fill="#493e37" fill-opacity=".5" d="M174 136h2v14h-2z"/><path fill="#ffc387" fill-opacity=".5" d="M93 100h31v6H93z"/><path fill="#cc9483" fill-opacity=".5" d="M89 125.8L68.3 124l5.4-21 5-11.3z"/><path fill="#b17a59" fill-opacity=".5" d="M60.4 45.5L46.5 47l-4.7 58 7-70.2z"/><ellipse fill="#9c6d56" fill-opacity=".5" cx="75" cy="218" rx="3" ry="24"/><path fill="#916353" fill-opacity=".5" d="M120.8 76l2.6-3.8 57.7 2.3 15.9 7.4z"/><ellipse fill="#c88d77" fill-opacity=".5" rx="1" ry="1" transform="rotate(147.6 49.9 101.3) scale(9.82988 16.05134)"/><ellipse fill="#9b9b99" fill-opacity=".5" cx="169" cy="42" rx="31" ry="1"/><ellipse fill="#4b4238" fill-opacity=".5" cx="79" cy="219" rx="35" ry="1"/><path fill="#7f6752" fill-opacity=".5" d="M64.4 76.4l-2.8-7 8.8-6.4 14 23z"/><path fill="#262f36" fill-opacity=".5" d="M181 36h1v26h-1z"/><path fill="#c8906b" fill-opacity=".5" d="M6.7 219l36.9-.2-5-8.6-23.5.4z"/><ellipse fill="#5f4241" fill-opacity=".5" rx="1" ry="1" transform="matrix(.34791 2.1579 -11.42798 1.84251 114.6 115.1)"/><ellipse fill="#ff5f36" fill-opacity=".5" cx="30" cy="106" rx="11" ry="1"/><path fill="#f5e6dc" fill-opacity=".5" d="M143 63h18v3h-18z"/><ellipse fill="#e2decb" fill-opacity=".5" cx="89" cy="127" rx="7" ry="1"/><path fill="#8a5f44" fill-opacity=".5" d="M40 62l12 3-24 4z"/><path fill="#4f453e" fill-opacity=".5" d="M77.2 86.3l.4 3-16.8 2.4-.4-3z"/><ellipse fill="#e1aa87" fill-opacity=".5" cx="29" cy="177" rx="22" ry="4"/><path fill="#182b30" fill-opacity=".5" d="M28 128h47v1H28z"/><path fill="#e5ae86" fill-opacity=".5" d="M15 41h25v23H15z"/><path fill="#ab7c70" fill-opacity=".5" d="M115 144h18v59h-18z"/><ellipse fill="#494a45" fill-opacity=".5" cx="90" cy="126" rx="13" ry="1"/><path fill="#664a3e" fill-opacity=".5" d="M101 91h4v9h-4z"/><path fill="#382821" fill-opacity=".5" d="M103 51h2v7h-2z"/><path fill="#d19b75" fill-opacity=".5" d="M116 202l-7 10-16-1z"/><ellipse fill="#aa948b" fill-opacity=".5" cx="103" cy="131" rx="34" ry="1"/><path fill="#745751" fill-opacity=".5" d="M163.5 121.5l5.9 18-2.9 1-5.9-18z"/><path fill="#e4ae89" fill-opacity=".5" d="M13.1 83.7l24.3-15.8 5.5 8.4-24.3 15.8z"/><ellipse fill="#886d63" fill-opacity=".5" cx="93" cy="156" rx="19" ry="1"/><path fill="#875e4d" fill-opacity=".5" d="M32.4 5.6l3 35-43.8 3.8-3-35z"/><ellipse fill="#1c2329" fill-opacity=".5" cx="29" cy="97" rx="14" ry="1"/><path fill="#061013" fill-opacity=".5" d="M170.4 43.4l.6.8-5.4 4.4-.6-.8z"/><path fill="#8a766d" fill-opacity=".5" d="M156.9 102.8l-3.8 27.4 7.5-13.8-9-7z"/><path fill="#b3816f" fill-opacity=".5" d="M85.6 120l17.6-42-46-5.5L85 66.2z"/><path fill="#8b6c58" fill-opacity=".5" d="M120.7 181l-26.5 11.8-.9-1.8 26.5-11.8z"/><ellipse fill="#ad7869" fill-opacity=".5" rx="1" ry="1" transform="rotate(-45.2 285.1 -131.7) scale(11.17466 16.9372)"/><ellipse fill="#e5dcd7" fill-opacity=".5" cx="162" cy="109" rx="6" ry="6"/><ellipse fill="#8c6254" fill-opacity=".5" rx="1" ry="1" transform="matrix(.78121 12.08055 -45.4937 2.94195 106.8 237)"/><path fill="#615f60" fill-opacity=".5" d="M193 46.2l-30.4-6.4.4-2 30.4 6.4z"/><path fill="#b08271" fill-opacity=".5" d="M8.2 151l1.6 31-18 1-1.6-31z"/><path fill="#dfd0cd" fill-opacity=".5" d="M84 158h29v4H84z"/><ellipse fill="#3d3e3b" fill-opacity=".5" cx="36" cy="220" rx="28" ry="1"/><path fill="#916553" fill-opacity=".5" d="M14 83.2l-30 17.5L14.1 8.8l.7 23.7z"/><path fill="#a97759" fill-opacity=".5" d="M83 162.2l-1.6 4.7-8.5-3 1.7-4.8z"/><path fill="#f2eee8" fill-opacity=".5" d="M159 92h1v31h-1z"/><path fill="#cea294" fill-opacity=".5" d="M110 152.7l32.1-7.6-10.4 2.8-15.5 12.5z"/><path fill="#2a3236" fill-opacity=".5" d="M176 59l14-18 1 24z"/><path fill="#ac7a6a" fill-opacity=".5" d="M134.8 84l-2.8 17.7-22.8-3.6 2.8-17.8z"/><ellipse fill="#c18e81" fill-opacity=".5" cx="161" cy="146" rx="5" ry="22"/><path fill="#c48b79" fill-opacity=".5" d="M132 123l25-9-23 68z"/><ellipse fill="#4d4947" fill-opacity=".5" rx="1" ry="1" transform="matrix(.94382 .33045 -1.53458 4.383 172.9 150.3)"/><ellipse fill="#715348" fill-opacity=".5" rx="1" ry="1" transform="matrix(2.55367 -19.46024 80.05184 10.50478 0 255)"/><path fill="#b17b6b" fill-opacity=".5" d="M185.4 91.4l6 57.7-14.8 1.5-6-57.7z"/><path fill="#f1e4dd" fill-opacity=".5" d="M162.4 37l.3-3 11 1-.4 3z"/><path fill="#946757" fill-opacity=".5" d="M124 50h11v20h-11z"/><ellipse fill="#a08378" fill-opacity=".5" cx="17" cy="115" rx="24" ry="1"/><path fill="#513e3e" fill-opacity=".5" d="M89 76.9l31.9-2.8v1l-31.8 2.8z"/><path fill="#212e34" fill-opacity=".5" d="M137 36h1v33h-1z"/><path fill="#5b453d" fill-opacity=".5" d="M116.2 51.9l-4.2 4.3-2.2-2 4.2-4.4z"/><path fill="#ddc5c3" fill-opacity=".5" d="M162.2 50.6l2.6-7.5 1 .3-2.6 7.5z"/><path fill="#a06d4c" fill-opacity=".5" d="M57.6 180.6l26.5-5.2.3 2-26.5 5.2z"/><path stroke="#9d7162" stroke-opacity=".5" fill="none" d="M115.3 135.2q-68.6-2-131.3-2.5" stroke-width=".5"/><path fill="#3b4245" fill-opacity=".5" d="M167.4 62.3l10-2-21 2-5.6-16.7z"/><ellipse fill="#2f2725" fill-opacity=".5" cx="151" cy="149" rx="2" ry="2"/><path fill="#ffc08c" fill-opacity=".5" d="M99 59h25v5H99z"/><path fill="#b48473" fill-opacity=".5" d="M22.8 110l-12.5 10 17.1 11.4L12 108z"/><path fill="#d8a57f" fill-opacity=".5" d="M58 93h14v3H58z"/><path fill="#875c41" fill-opacity=".5" d="M35 208l14-5H35z"/><path fill="#3d4246" fill-opacity=".5" d="M135 66.7l2.6-21.8 16 5.9 10.6-13.2z"/><path fill="#988e8b" fill-opacity=".5" d="M175 33l8 12-9-1z"/><path fill="#fbcaa0" fill-opacity=".5" d="M105 61l10-19h-6z"/><path fill="#4f4341" fill-opacity=".5" d="M155.8 212.7l-21-12.3 6.2.3 5.4 9.3z"/><path fill="#6c4e45" fill-opacity=".5" d="M104 117l-13-12-2 6z"/><path fill="#413938" fill-opacity=".5" d="M37 96h37v2H37z"/><ellipse fill="#81675c" fill-opacity=".5" cx="163" cy="98" rx="3" ry="5"/><path fill="#ce9972" fill-opacity=".5" d="M60.7 86.5l-7.4-46.4 4-.6 7.4 46.4z"/><path fill="#7f573a" fill-opacity=".5" d="M167 208l-5-2 11-13z"/><path fill="#b7a6a3" fill-opacity=".5" d="M194 43.5v1l-30-2v-1z"/><path fill="#67656a" fill-opacity=".5" d="M168 91h3v18h-3z"/><path fill="#9a6a58" fill-opacity=".5" d="M122.4 6.2l9.9 52.5-19-.5.3-25.5z"/><path fill="#b78577" fill-opacity=".5" d="M104 118h25v26h-25z"/><path fill="#7d5446" fill-opacity=".5" d="M49-5l20.8 2.2L67.1 23l-20.9-2.2z"/><ellipse fill="#8c674d" fill-opacity=".5" cx="39" cy="182" rx="32" ry="1"/><ellipse fill="#9a6653" fill-opacity=".5" rx="1" ry="1" transform="matrix(-2.05992 24.7068 -10.82736 -.90273 79.2 12.1)"/><path fill="#77594f" fill-opacity=".5" d="M16.6 101.6l18.3-3-17-.8-5.6 1.3z"/><path fill="#e3cece" fill-opacity=".5" d="M165 50.8l4.5-2.3 1.4 2.7-4.4 2.3z"/><ellipse fill="#a46b53" fill-opacity=".5" cx="42" cy="12" rx="4" ry="29"/><path fill="#d59e7b" fill-opacity=".5" d="M109.8 187.3l-.4-20.2 9.7.5-51.3-4.4z"/><path fill="#9d7062" fill-opacity=".5" d="M148 220h30v16h-30z"/><path fill="#9c6753" fill-opacity=".5" d="M45 107h2v9h-2z"/><path fill="#d49f7e" fill-opacity=".5" d="M60 184l-46 3 26 18z"/><path fill="#d8c8c7" fill-opacity=".5" d="M114.2 164.5l-1.4-21h1l1.4 21z"/><path fill="#8c7567" fill-opacity=".5" d="M69.9 124.4v1l-21.8 2.2v-1z"/><path fill="#845f53" fill-opacity=".5" d="M4.8 241.5l31.4 10-29.7-35.3-5-11.4z"/><path fill="#ecd9cf" fill-opacity=".5" d="M148 64h34v2h-34z"/><ellipse fill="#333139" fill-opacity=".5" cx="171" cy="51" rx="2" ry="2"/><ellipse fill="#ece1da" fill-opacity=".5" cx="30" cy="113" rx="13" ry="2"/><ellipse fill="#71554d" fill-opacity=".5" cx="31" cy="117" rx="14" ry="2"/><path fill="#75523b" fill-opacity=".5" d="M101 83h2v9h-2z"/><ellipse fill="#fff1e7" fill-opacity=".5" cx="141" cy="63" rx="2" ry="2"/><path fill="#c78e69" fill-opacity=".5" d="M60.5 144v26h-3v-26z"/><path fill="#956a4e" fill-opacity=".5" d="M62 210l14 3-21 6z"/><path fill="#f8f5ec" fill-opacity=".5" d="M151 140h3v3h-3z"/><path fill="#a5786c" fill-opacity=".5" d="M108.5 124.2l-3.6 11-23.5-1.5 7 10.3z"/><path fill="#725852" fill-opacity=".5" d="M152 269l-6-42-16 17z"/><path fill="#1f252d" fill-opacity=".5" d="M166.2 45.5l7.8 2-.2 1-7.8-2z"/><path fill="#c08761" fill-opacity=".5" d="M18.5 75.4l42-27-3.8 5.4L32 70.1z"/><path fill="#e0aa85" fill-opacity=".5" d="M15 73h20v23H15z"/><path fill="#9e6f60" fill-opacity=".5" d="M81.8 96.7l22.4-79.1-36.1 89.7-14.6-8.6z"/><path fill="#595858" fill-opacity=".5" d="M167 38l-7 3 1 2z"/><ellipse fill="#8a6e5c" fill-opacity=".5" cx="104" cy="187" rx="3" ry="8"/><path fill="#9d7264" fill-opacity=".5" d="M132.4 118.7l-6.5 66.2 19.1 32.2-14-35z"/><path fill="#c79273" fill-opacity=".5" d="M68.9 197.8v21.3l-11.4-40.9L46 171z"/><ellipse fill="#453a35" fill-opacity=".5" cx="11" cy="75" rx="3" ry="3"/><path fill="#433a3b" fill-opacity=".5" d="M174.4 188.6l-.9.4-5.9-11.6.9-.4z"/><ellipse fill="#665e57" fill-opacity=".5" rx="1" ry="1" transform="matrix(-1.81693 -9.2893 .9814 -.19196 170 142.3)"/><path fill="#948c87" fill-opacity=".5" d="M158 47l15 14-12-6z"/><path fill="#6f6d6e" fill-opacity=".5" d="M173 35h9v8h-9z"/><path fill="#7a5f4d" fill-opacity=".5" d="M67 63l8 3 5 20z"/><ellipse fill="#d6ced2" fill-opacity=".5" cx="14" cy="160" rx="6" ry="3"/><path fill="#946858" fill-opacity=".5" d="M115.6 27.3l11 19 35.6-33-4.4 22.5z"/><ellipse fill="#cea096" fill-opacity=".5" rx="1" ry="1" transform="matrix(2.18503 -4.05804 4.56618 2.45864 79.2 138.7)"/><path fill="#6b4c3c" fill-opacity=".5" d="M101 45h2v13h-2z"/><ellipse fill="#b58375" fill-opacity=".5" cx="163" cy="188" rx="8" ry="8"/><ellipse fill="#a39b92" fill-opacity=".5" cx="30" cy="127" rx="8" ry="1"/><path stroke="#e2dad1" stroke-opacity=".5" fill="none" d="M151.4 141.8Q160 121 167 97.2" stroke-width=".5"/><path fill="#2d2e2c" fill-opacity=".5" d="M144.5 174.5h19v1h-19z"/><path fill="#b27f5e" fill-opacity=".5" d="M41.3 62.8L45.6 86l21.6-12.6L53 89.1z"/><path fill="#8e6549" fill-opacity=".5" d="M152.9 179.3l-25.1 1.9 37.2-11.8-12-.5z"/><path fill="#e76134" fill-opacity=".5" d="M105 66.3l-11.8 2.3-.2-1 11.8-2.2z"/><path fill="#373838" fill-opacity=".5" d="M134 68h48v3h-48z"/><path fill="#e0683f" fill-opacity=".5" d="M99 109v-1l16 1v1z"/><path fill="#b37d53" fill-opacity=".5" d="M178 200l2-15-18 25z"/><path fill="#d09c8a" fill-opacity=".5" d="M152 158l8 5-2-25z"/><path fill="#fff" fill-opacity=".5" d="M171.7 143l-.8-.6 1.4-1.5.8.7z"/><ellipse fill="#cfd0cf" fill-opacity=".5" rx="1" ry="1" transform="matrix(-.9876 .15703 -1.16794 -7.3455 172 139.5)"/><path fill="#f3e8e1" fill-opacity=".5" d="M156.2 41l11.1-6.8.5.9-11.1 6.7z"/><path fill="#bb8766" fill-opacity=".5" d="M74.6 158.5L60 171.4l1.5 14 3.8-12.9z"/><path fill="#876f66" fill-opacity=".5" d="M153 115l5-2-4-13z"/><path fill="#d1bdb6" fill-opacity=".5" d="M175 38h5v2h-5z"/><path fill="#555352" fill-opacity=".5" d="M160.7 60.5l34.2-4.8-.4 4.8-28.8 4.4z"/><path fill="#70534c" fill-opacity=".5" d="M151.5 134.8l-1-.3 4-11.3 1 .3z"/><path fill="#70352e" fill-opacity=".5" d="M96 111h27v5H96z"/><path fill="#f7d3b0" fill-opacity=".5" d="M106 82h3v19h-3z"/><path fill="#c18354" fill-opacity=".5" d="M139 179h4v19h-4z"/><path fill="#7c5447" fill-opacity=".5" d="M178 0h4v34h-4z"/><path fill="#a47b6d" fill-opacity=".5" d="M99.5 130.4l29-12.7-.1-56.3-4.5 51z"/><path fill="#d5a37e" fill-opacity=".5" d="M73 87l-12-4 14-3z"/><path fill="#bb8779" fill-opacity=".5" d="M91 80h9v19h-9z"/><path fill="#94685a" fill-opacity=".5" d="M125.3 224l-88 10.7 79.7 3-1.1-45z"/><path fill="#353b3e" fill-opacity=".5" d="M132 41l7 20h10z"/><path fill="#c69382" fill-opacity=".5" d="M46 103h9v22h-9z"/><ellipse fill="#ad7d6b" fill-opacity=".5" rx="1" ry="1" transform="matrix(-1.10516 13.41231 -14.31849 -1.17983 5.7 109)"/><ellipse fill="#202f35" fill-opacity=".5" cx="52" cy="132" rx="32" ry="1"/><path fill="#987264" fill-opacity=".5" d="M178 129l-12-12 10 21z"/><path fill="#c28973" fill-opacity=".5" d="M140 85h14v42h-14z"/><ellipse fill="#c7b4ab" fill-opacity=".5" cx="172" cy="54" rx="2" ry="2"/><path fill="#343f3c" fill-opacity=".5" d="M76 129h27v2H76z"/><path fill="#433b3b" fill-opacity=".5" d="M158.1 172.1l15 10.1-1.2 1.7-15-10.1z"/><path fill="#eabba2" fill-opacity=".5" d="M21.4 129.4l5.6 2.3-.4 1-5.6-2.4z"/><path fill="#a67658" fill-opacity=".5" d="M71.3 197.4L35.2 156l1.5-1.3L72.8 196z"/><path fill="#b48373" fill-opacity=".5" d="M99.6 116.1l38.3 5.2-12 25.7-39.7-31.2z"/><ellipse fill="#7f5b4f" fill-opacity=".5" rx="1" ry="1" transform="matrix(-7.75152 .54806 -2.49134 -35.23648 134.8 2.2)"/><path fill="#b18172" fill-opacity=".5" d="M177 143l-9-35 13 3z"/><path fill="#926556" fill-opacity=".5" d="M108.7 39.1l9.9 8.1-39-51.4 6.9 55z"/><path fill="#b0816f" fill-opacity=".5" d="M-15 156l28-51-9 92z"/><ellipse fill="#444f4f" fill-opacity=".5" cx="71" cy="127" rx="2" ry="2"/><path fill="#77503e" fill-opacity=".5" d="M90 64h5v9h-5z"/><path fill="#ffbfb0" fill-opacity=".5" d="M18 107h23v3H18z"/><path fill="#b17a57" fill-opacity=".5" d="M86 164l4 7-4 6z"/><path stroke="#decec5" stroke-opacity=".5" fill="none" d="M154.2 133.7q11.6-18.8 9.1-46" stroke-width=".5"/><path fill="#c9926c" fill-opacity=".5" d="M113 210l2 7h-14z"/><path fill="#d29e7d" fill-opacity=".5" d="M77 191h21v4H77z"/><path fill="#847663" fill-opacity=".5" d="M97 107h29v2H97z"/><path fill="#d8a280" fill-opacity=".5" d="M78.7 178l10.5-7.7-11-7.4-13.4 15.5z"/><path fill="#444243" fill-opacity=".5" d="M174 138.4l-3-6.3 1-.5 3 6.3z"/><ellipse fill="#252d32" fill-opacity=".5" cx="156" cy="176" rx="8" ry="1"/><path fill="#745b4d" fill-opacity=".5" d="M110.5 97.3l-1-.5 4-8 1 .4z"/><path fill="#e0cdc6" fill-opacity=".5" d="M47 160h25v2H47z"/><path fill="#8a4434" fill-opacity=".5" d="M108 65h8v9h-8z"/><path fill="#ece2db" fill-opacity=".5" d="M173.1 141.5l-1 .3-5.2-17.3 1-.3z"/><path fill="#a67350" fill-opacity=".5" d="M159.3 173.5l-2.7-5.9 20.7 17.3-5-16.2z"/><path fill="#977966" fill-opacity=".5" d="M62 83l3 3 5-11z"/><path fill="#d59f7f" fill-opacity=".5" d="M95 157.6l-3 23.7-14 1.2 16-9z"/><ellipse fill="#e1d7d5" fill-opacity=".5" rx="1" ry="1" transform="matrix(7.12928 -11.5433 .85081 .52547 161.9 119.9)"/><path fill="#9e6e5b" fill-opacity=".5" d="M0 77h14v20H0z"/><ellipse fill="#3a312d" fill-opacity=".5" cx="136" cy="184" rx="1" ry="4"/><path fill="#8c6a60" fill-opacity=".5" d="M4 192h4v24H4z"/><path fill="#705148" fill-opacity=".5" d="M28.2 253.4l10.9 7.1-1.7-39.7-10.2 50.4z"/></g></svg>